<svg id="Capa_1" width="current" height="current" fill="current" enable-background="new 0 0 512 512"  viewBox="0 0 512 512" width="512" xmlns="http://www.w3.org/2000/svg"><g><path d="m502.503 317.046-71.101-28.041c-7.363-2.945-11.167-11.146-8.659-18.67l13.553-40.657c1.797-5.39.394-11.333-3.624-15.35-4.017-4.018-9.961-5.42-15.35-3.624l-26.322 8.774v-68.478c0-3.978-1.58-7.793-4.394-10.606l-27.496-27.496-22.042-66.129c-6.135-18.404-23.292-30.769-42.691-30.769h-197.754c-19.399 0-36.556 12.365-42.691 30.77l-22.042 66.128-27.496 27.496c-2.814 2.813-4.394 6.628-4.394 10.606v60c0 19.555 12.541 36.228 30 42.42v47.58c0 8.284 6.716 15 15 15h60c8.284 0 15-6.716 15-15v-45h84.479l4.778 14.334c2.508 7.525-1.296 15.726-8.592 18.645l-71.168 28.067c-5.73 2.26-9.497 7.794-9.497 13.954s3.767 11.694 9.497 13.954l71.101 28.041c7.363 2.945 11.167 11.146 8.659 18.67l-13.553 40.657c-1.797 5.39-.394 11.333 3.624 15.35 4.018 4.018 9.962 5.42 15.35 3.624l47.401-15.8c7.038-2.344 14.843.889 18.16 7.522l22.345 44.69c2.54 5.082 7.734 8.292 13.416 8.292s10.876-3.21 13.416-8.292l22.345-44.689c3.317-6.633 11.125-9.869 18.16-7.522l47.401 15.8c5.391 1.796 11.333.393 15.35-3.624 4.018-4.018 5.421-9.96 3.624-15.35l-13.553-40.656c-2.504-7.514 1.286-15.703 8.629-18.659l71.131-28.053c5.73-2.26 9.497-7.794 9.497-13.954s-3.767-11.695-9.497-13.955zm-287.825-106.342c-5.392-1.797-11.333-.394-15.35 3.624-3.117 3.117-4.652 7.394-4.348 11.672h-149.98c-8.271 0-15-6.729-15-15v-15h45c8.284 0 15-6.716 15-15s-6.716-15-15-15h-45v-8.787l21.213-21.213h20.246l56.833 28.417c2.083 1.042 4.379 1.583 6.708 1.583h121c2.329 0 4.625-.542 6.708-1.583l56.833-28.417h20.246l21.213 21.213v69.433c-3.901-1.142-7.321-3.83-9.239-7.664l-22.345-44.69c-2.54-5.082-7.734-8.292-13.416-8.292s-10.876 3.21-13.416 8.292l-22.345 44.689c-3.317 6.633-11.123 9.868-18.16 7.522zm-118.055-164.704h197.754c6.467 0 12.186 4.122 14.23 10.256l16.581 49.744h-9.188c-2.329 0-4.625.542-6.708 1.583l-56.833 28.417h-113.918l-56.833-28.417c-2.083-1.041-4.379-1.583-6.708-1.583h-9.188l16.581-49.743c2.045-6.135 7.763-10.257 14.23-10.257zm-6.623 240h-30v-30h30zm330.329 59.113c-.022.009-.045.018-.067.027-22.091 8.836-33.503 33.439-25.979 56.012l4.066 12.197-18.941-6.313c-21.104-7.038-44.528 2.665-54.479 22.566l-8.929 17.856-8.929-17.857c-9.998-19.994-33.468-29.569-54.479-22.566l-18.941 6.313 4.066-12.198c7.523-22.572-3.889-47.175-26.047-56.038l-35.785-14.112 35.854-14.14c22.091-8.836 33.503-33.439 25.979-56.012l-4.066-12.197 18.941 6.313c21.104 7.038 44.528-2.666 54.479-22.566l8.928-17.856 8.929 17.857c13.33 26.659 46.302 28.95 58.975 21.067l14.445-4.815-4.066 12.198c-7.523 22.572 3.889 47.175 26.047 56.038l35.785 14.113z"/><circle cx="316" cy="376" r="15"/><path d="m316 271c-8.284 0-15 6.716-15 15v45c0 8.284 6.716 15 15 15s15-6.716 15-15v-45c0-8.284-6.716-15-15-15z"/></g></svg>