<svg id="Icon" width="current" height="current" fill="current" viewBox="0 0 24 24" xmlns="http://www.w3.org/2000/svg">
<path d="m19.717 9.357c-.329-3.973-3.661-7.107-7.717-7.107s-7.389 3.134-7.717 7.107c-1.167.318-2.033 1.376-2.033 2.643 0 .849.394 1.599 1 2.104v2.654c0 2.753 2.24 4.992 4.993 4.992 1.333 0 2.586-.52 3.53-1.462l.227-.228.228.228c.943.942 2.197 1.462 3.53 1.462 2.753 0 4.993-2.239 4.993-4.992v-2.654c.606-.505 1-1.255 1-2.104 0-1.267-.865-2.325-2.033-2.643zm-7.717-5.607c3.192 0 5.833 2.406 6.205 5.5h-12.41c.372-3.094 3.013-5.5 6.205-5.5zm7.25 13.008c0 1.926-1.567 3.492-3.493 3.492-.933 0-1.81-.363-2.47-1.022l-.757-.758c-.141-.141-.331-.22-.53-.22s-.39.079-.53.22l-.757.758c-.661.659-1.538 1.022-2.47 1.022-1.926 0-3.493-1.566-3.493-3.492v-2.008h14.5zm-.25-3.508h-14c-.689 0-1.25-.561-1.25-1.25s.561-1.25 1.25-1.25h14c.689 0 1.25.561 1.25 1.25s-.561 1.25-1.25 1.25zm-9.25 3.75c0 .414-.336.75-.75.75h-2c-.414 0-.75-.336-.75-.75s.336-.75.75-.75h2c.414 0 .75.336.75.75zm8 0c0 .414-.336.75-.75.75h-2c-.414 0-.75-.336-.75-.75s.336-.75.75-.75h2c.414 0 .75.336.75.75z"/></svg>