<svg height="512pt" viewBox="-20 0 512 512" width="current" height="current" fill="current" xmlns="http://www.w3.org/2000/svg"><path d="m91.003906 336.152344-21.1875-21.183594-69.816406 69.816406 127.214844 127.214844 69.816406-69.816406-20.359375-20.359375h181.890625l112.445312-149.933594-71.953124-53.984375-74.871094 99.820312c-11.390625-26.910156-38.0625-45.839843-69.078125-45.839843h-100.027344zm36.210938 133.4375-84.804688-84.804688 27.40625-27.40625 84.804688 84.804688zm127.890625-167.714844c19.550781 0 36.226562 12.53125 42.414062 29.988281-10.464843 0-85.871093 0-96.390625 0v29.984375h128.945313v-2.515625l.25.1875 74.722656-99.628906 23.984375 17.996094-85.460938 113.949219h-181.28125l-7.742187 7.859374-42.339844-42.335937 55.320313-55.484375zm0 0"/><path d="m321.078125 59.976562c0-33.070312-26.902344-59.976562-59.972656-59.976562-33.070313 0-59.976563 26.90625-59.976563 59.976562 0 33.070313 26.90625 59.972657 59.976563 59.972657 33.070312 0 59.972656-26.902344 59.972656-59.972657zm-59.972656 29.984376c-16.535157 0-29.988281-13.449219-29.988281-29.984376 0-16.535156 13.453124-29.988281 29.988281-29.988281 16.535156 0 29.988281 13.453125 29.988281 29.988281 0 16.535157-13.453125 29.984376-29.988281 29.984376zm0 0"/><path d="m171.140625 211.910156v29.988282h179.925781v-29.988282c0-49.902344-40.390625-91.960937-89.960937-91.960937-49.546875 0-89.964844 42.039062-89.964844 91.960937zm89.964844-61.972656c32.507812 0 59.972656 28.382812 59.972656 61.972656h-119.949219c0-33.589844 27.464844-61.972656 59.976563-61.972656zm0 0"/></svg>