
<svg id="fi_11959347" width="current" height="current" fill="current" viewBox="0 0 24 24" xmlns="http://www.w3.org/2000/svg"><path d="m18.077 10.644.528-.527c.894-.906 1.386-2.098 1.386-3.357 0-1.27-.493-2.463-1.39-3.36-1.848-1.846-4.861-1.849-6.721 0l-4.24 4.24-4.242 4.242c-1.846 1.858-1.845 4.872.002 6.719.924.923 2.139 1.385 3.356 1.385s2.435-.461 3.364-1.385l.524-.524c.835 2.146 2.918 3.674 5.356 3.674 3.171 0 5.75-2.58 5.75-5.75 0-2.438-1.527-4.521-3.673-5.356zm1.869 3.802-8.188 1.638c0-.028-.008-.055-.008-.083 0-2.343 1.906-4.25 4.25-4.25 1.794 0 3.324 1.121 3.946 2.696zm-7.008-9.984c1.272-1.264 3.337-1.266 4.602-.002.612.613.95 1.43.95 2.299 0 .862-.339 1.68-.95 2.3l-1.207 1.207c-.111-.006-.22-.017-.333-.017-1.315 0-2.525.449-3.495 1.195l-3.274-3.274 3.708-3.708zm-3.877 13.075c-1.271 1.265-3.336 1.267-4.602.002-1.264-1.264-1.263-3.328 0-4.599l3.71-3.71 3.274 3.274c-.746.97-1.195 2.18-1.195 3.495 0 .112.01.222.017.333l-1.205 1.205zm6.938 2.712c-1.794 0-3.324-1.121-3.946-2.696l8.188-1.638c0 .028.008.055.008.083 0 2.343-1.906 4.25-4.25 4.25z"></path></svg>