<svg xmlns="http://www.w3.org/2000/svg" id="fi_5859335" viewBox="0 0 512 512" width="current" height="current" fill="current"><g id="more-v-circle-Bold-2" data-name="more-v-circle-Bold"><path id="more-v-circle-Bold-3" data-name="more-v-circle-Bold" d="M378.667,256A26.667,26.667,0,1,1,352,229.333,26.666,26.666,0,0,1,378.667,256ZM256,229.333A26.667,26.667,0,1,0,282.667,256,26.667,26.667,0,0,0,256,229.333Zm-96,0A26.667,26.667,0,1,0,186.667,256,26.667,26.667,0,0,0,160,229.333ZM469.333,256c0,117.625-95.7,213.333-213.333,213.333S42.667,373.625,42.667,256,138.365,42.667,256,42.667,469.333,138.375,469.333,256Zm-42.666,0C426.667,161.9,350.1,85.333,256,85.333S85.333,161.9,85.333,256,161.9,426.667,256,426.667,426.667,350.1,426.667,256Z"></path></g></svg>