<svg id="fi_9714978" width="current" height="auto" fill="current"  enable-background="new 0 0 512 512"  viewBox="0 0 512 512"  xmlns="http://www.w3.org/2000/svg"><g><path d="m310.716 133.989-19.033-7.518c6.182-7.802 9.887-17.651 9.887-28.356v-10.02c0-25.227-20.523-45.75-45.75-45.75-25.228 0-45.751 20.523-45.751 45.75v10.02c0 10.704 3.705 20.554 9.887 28.356l-19.034 7.518c-16.442 6.495-27.066 22.114-27.066 39.792v58.234h163.927v-58.234c-.001-17.678-10.625-33.298-27.067-39.792zm-70.648-45.893c0-8.685 7.065-15.75 15.751-15.75 8.685 0 15.75 7.065 15.75 15.75v10.02c0 8.685-7.065 15.75-15.75 15.75-8.686 0-15.751-7.065-15.751-15.75zm67.714 113.919h-103.927v-28.234c0-5.282 3.175-9.949 8.088-11.89l43.876-17.33 43.875 17.33c4.913 1.94 8.088 6.607 8.088 11.89z"></path><path d="m136.86 371.629-19.033-7.518c6.182-7.802 9.887-17.651 9.887-28.356v-10.02c0-25.227-20.523-45.75-45.75-45.75-25.228 0-45.751 20.523-45.751 45.75v10.02c0 10.704 3.705 20.554 9.887 28.356l-19.034 7.518c-16.442 6.495-27.066 22.114-27.066 39.792v58.234h163.927v-58.234c0-17.678-10.624-33.297-27.067-39.792zm-70.647-45.893c0-8.685 7.065-15.75 15.751-15.75 8.685 0 15.75 7.065 15.75 15.75v10.02c0 8.685-7.065 15.75-15.75 15.75-8.686 0-15.751-7.065-15.751-15.75zm67.714 113.919h-103.927v-28.234c0-5.282 3.175-9.949 8.088-11.89l43.876-17.33 43.875 17.33c4.913 1.94 8.088 6.607 8.088 11.89z"></path><path d="m484.935 371.629-19.034-7.518c6.182-7.802 9.887-17.651 9.887-28.356v-10.02c0-25.227-20.523-45.75-45.751-45.75s-45.751 20.523-45.751 45.75v10.02c0 10.704 3.705 20.554 9.887 28.356l-19.034 7.518c-16.442 6.495-27.066 22.114-27.066 39.792v58.234h163.927v-58.234c0-17.678-10.624-33.297-27.065-39.792zm-70.649-45.893c0-8.685 7.065-15.75 15.751-15.75s15.751 7.065 15.751 15.75v10.02c0 8.685-7.065 15.75-15.751 15.75s-15.751-7.065-15.751-15.75zm67.714 113.919h-103.927v-28.234c0-5.282 3.175-9.949 8.088-11.89l43.876-17.33 43.876 17.33c4.912 1.941 8.087 6.608 8.087 11.89z"></path><path d="m270.819 275.702h-30v52.759l-48.989 28.415 15.053 25.951 48.936-28.385 48.936 28.385 15.053-25.951-48.989-28.415z"></path></g></svg>