<svg width="current" height="auto" fill="current" viewBox="0 -32 512.00094 512" width="512pt" xmlns="http://www.w3.org/2000/svg"><path d="m323.429688 334.359375c-37.351563 0-74.707032-14.226563-103.148438-42.660156-45.652344-45.652344-55.992188-114.589844-25.722656-171.546875 4.234375-7.996094 14.140625-11.03125 22.152344-6.78125 7.988281 4.25 11.023437 14.164062 6.78125 22.160156-23.464844 44.152344-15.433594 97.605469 19.96875 133.003906 44.097656 44.101563 115.859374 44.101563 159.949218 0 44.085938-44.097656 44.097656-115.847656 0-159.9375-43.550781-43.566406-112.753906-44.605468-157.546875-2.351562-6.566406 6.191406-16.941406 5.917968-23.152343-.675782-6.210938-6.585937-5.910157-16.949218.675781-23.152343 57.753906-54.5 147.015625-53.179688 203.195312 3.015625 56.867188 56.871094 56.867188 149.40625 0 206.277344-28.445312 28.421874-65.796875 42.648437-103.152343 42.648437zm0 0"/><path d="m145.882812 334.429688c-80.441406 0-145.882812-65.433594-145.882812-145.863282 0-80.433594 65.441406-145.863281 145.882812-145.863281 80.421876 0 145.847657 65.433594 145.847657 145.863281 0 23.394532-5.671875 46.652344-16.390625 67.261719-4.179688 8.03125-14.066406 11.152344-22.101563 6.972656-8.019531-4.179687-11.144531-14.074219-6.964843-22.097656 8.421874-16.1875 12.699218-33.722656 12.699218-52.136719 0-62.363281-50.738281-113.101562-113.082031-113.101562-62.371094 0-113.117187 50.738281-113.117187 113.101562 0 62.359375 50.730468 113.089844 113.109374 113.089844 28.949219 0 56.488282-10.933594 77.554688-30.792969 6.585938-6.214843 16.941406-5.902343 23.164062.683594 6.203126 6.582031 5.894532 16.949219-.683593 23.152344-27.183594 25.628906-62.699219 39.730469-100.035157 39.730469zm0 0"/><path d="m145.882812 448.445312c-9.054687 0-16.382812-7.339843-16.382812-16.394531v-114.011719c0-9.050781 7.328125-16.382812 16.382812-16.382812 9.050782 0 16.382813 7.332031 16.382813 16.382812v114.023438c-.007813 9.042969-7.339844 16.382812-16.382813 16.382812zm0 0"/><path d="m415 113.386719c-4.199219 0-8.386719-1.597657-11.589844-4.800781-6.398437-6.398438-6.398437-16.773438 0-23.164063l80.617188-80.617187c6.398437-6.40625 16.78125-6.40625 23.171875 0 6.398437 6.398437 6.398437 16.773437 0 23.164062l-80.617188 80.617188c-3.195312 3.203124-7.394531 4.800781-11.582031 4.800781zm0 0"/><path d="m197.949219 400.28125h-104.160157c-9.054687 0-16.382812-7.339844-16.382812-16.390625 0-9.054687 7.328125-16.382813 16.382812-16.382813h104.152344c9.054688 0 16.382813 7.328126 16.382813 16.382813 0 9.050781-7.332031 16.390625-16.375 16.390625zm0 0"/><path d="m495.617188 110.183594c-9.050782 0-16.382813-7.339844-16.382813-16.382813v-61.03125h-61.03125c-9.050781 0-16.382813-7.339843-16.382813-16.382812s7.339844-16.38281275 16.382813-16.38281275h77.414063c9.050781 0 16.382812 7.33984375 16.382812 16.38281275v77.414062c-.007812 9.042969-7.339844 16.382813-16.382812 16.382813zm0 0"/></svg>