<svg id="valentine_icon"  width="current" height="auto" fill="current" viewBox="0 0 64 64" xmlns="http://www.w3.org/2000/svg" data-name="valentine icon"><path d="m27.37 40.72 8-10.47a1.52 1.52 0 0 0 0-1.83l-8-10.42 3.18-4.15a1.5 1.5 0 0 0 -.11-2 15.75 15.75 0 0 0 -11.37-4.85 15.71 15.71 0 0 0 -11.39 4.87 16.94 16.94 0 0 0 0 23.38l20.62 21.29a1.5 1.5 0 0 0 2.16 0l4.14-4.28a1.49 1.49 0 0 0 .12-1.95zm2 12.62-19.53-20.18a13.91 13.91 0 0 1 0-19.16 12.77 12.77 0 0 1 9.22-4 12.7 12.7 0 0 1 8.27 3.06l-3.05 4a1.47 1.47 0 0 0 0 1.82l8 10.48-8 10.47a1.47 1.47 0 0 0 0 1.82l7.26 9.47z"/><path d="m56.32 11.87a15.75 15.75 0 0 0 -22.56-.22 1.37 1.37 0 0 0 -.35.33l-3.88 5.02a1.47 1.47 0 0 0 0 1.82l8 10.48-8 10.47a1.47 1.47 0 0 0 0 1.82l8 10.5a1.48 1.48 0 0 0 1.1.59h.09a1.5 1.5 0 0 0 1.07-.46l16.48-17a16.94 16.94 0 0 0 .05-23.35zm-2.16 21.29-15.26 15.76-6.29-8.2 8-10.47a1.52 1.52 0 0 0 0-1.83l-8-10.42 3-3.91.09-.09a12.76 12.76 0 0 1 18.46 0 13.91 13.91 0 0 1 0 19.16z"/></svg>