<svg id="fi_5679824" enable-background="new 0 0 512 512" viewBox="0 0 512 512" width="current" height="auto" fill="current" xmlns="http://www.w3.org/2000/svg"><g><path d="m396.895 0h-281.79c-24.813 0-45 20.187-45 45v422c0 24.813 20.187 45 45 45h187.978c12.021 0 23.321-4.681 31.82-13.181l93.811-93.811c8.5-8.499 13.181-19.8 13.181-31.819v-328.189c0-24.813-20.187-45-45-45zm-281.79 482c-8.271 0-15-6.729-15-15v-422c0-8.271 6.729-15 15-15h281.789c8.271 0 15 6.729 15 15v323.33h-80.664c-15.45 0-28.021 12.569-28.021 28.02v85.644c-.042 0-.084.006-.127.006zm218.105-23.913v-59.757h59.757z"></path><path d="m287 119.208h71.776c8.284 0 15-6.716 15-15s-6.716-15-15-15h-71.776c-8.284 0-15 6.716-15 15s6.716 15 15 15z"></path><path d="m287 192.111h71.776c8.284 0 15-6.716 15-15s-6.716-15-15-15h-71.776c-8.284 0-15 6.716-15 15s6.716 15 15 15z"></path><path d="m287 265.014h71.776c8.284 0 15-6.716 15-15s-6.716-15-15-15h-71.776c-8.284 0-15 6.716-15 15s6.716 15 15 15z"></path><path d="m373.776 322.917c0-8.284-6.716-15-15-15h-71.776c-8.284 0-15 6.716-15 15s6.716 15 15 15h71.776c8.285 0 15-6.716 15-15z"></path><path d="m194.339 78.226-21.832 18.277-2.764-4.099c-4.632-6.869-13.954-8.685-20.822-4.053-6.869 4.631-8.684 13.953-4.053 20.822l12.067 17.9c4.957 7.354 15.225 8.846 22.066 3.116l34.595-28.963c6.353-5.317 7.19-14.778 1.872-21.13-5.317-6.35-14.778-7.19-21.129-1.87z"></path><path d="m194.339 153.351-21.832 18.277-2.764-4.099c-4.632-6.87-13.954-8.685-20.822-4.053-6.869 4.631-8.684 13.953-4.053 20.822l12.067 17.9c4.957 7.354 15.225 8.846 22.066 3.116l34.595-28.963c6.353-5.317 7.19-14.778 1.872-21.13-5.317-6.349-14.778-7.19-21.129-1.87z"></path><path d="m194.339 228.476-21.832 18.277-2.764-4.099c-4.632-6.869-13.954-8.684-20.822-4.053-6.869 4.631-8.684 13.953-4.053 20.822l12.067 17.9c4.957 7.354 15.225 8.846 22.066 3.116l34.595-28.963c6.353-5.317 7.19-14.778 1.872-21.13-5.317-6.35-14.778-7.19-21.129-1.87z"></path></g></svg>