<svg width="current" height="auto" fill="current" viewBox="0 0 32 32" width="512" xmlns="http://www.w3.org/2000/svg" id="fi_7546877"><g id="Layer_2" data-name="Layer 2"><path d="m20 2h-6.082a7 7 0 0 0 -6.93 7.99l.012.11a5.008 5.008 0 0 0 -4 4.9v1.54a6.467 6.467 0 0 0 5 6.287v4.173a3 3 0 0 0 3 3h11a3 3 0 0 0 3-3v-5c0-.008 0-.014 0-.022a4.979 4.979 0 0 0 2-3.978v-9a7.008 7.008 0 0 0 -7-7zm3 21v2h-4a1 1 0 0 0 0 2h4a1 1 0 0 1 -1 1h-11a1 1 0 0 1 -1-1v-4zm2-5a3 3 0 0 1 -3 3h-12.54a4.465 4.465 0 0 1 -4.46-4.46v-1.54a3 3 0 0 1 2.289-2.906l.721 5.048a1 1 0 1 0 1.98-.284l-1.021-7.151a5 5 0 0 1 4.949-5.707h6.082a5.006 5.006 0 0 1 5 5z"></path></g></svg>