<?xml version="1.0" encoding="iso-8859-1"?>
<!-- Generator: Adobe Illustrator 18.0.0, SVG Export Plug-In . SVG Version: 6.00 Build 0)  -->
<!DOCTYPE svg PUBLIC "-//W3C//DTD SVG 1.1//EN" "http://www.w3.org/Graphics/SVG/1.1/DTD/svg11.dtd">
<svg width="current" height="auto" fill="current"   version="1.1" id="Capa_1" xmlns="http://www.w3.org/2000/svg" xmlns:xlink="http://www.w3.org/1999/xlink" x="0px" y="0px"
	 viewBox="0 0 286 286" style="enable-background:new 0 0 286 286;" xml:space="preserve">
<g>
	<path d="M285.057,138.761c-12.46-26.625-32.108-49.176-56.818-65.216C202.859,57.071,173.385,48.363,143,48.363
		s-59.859,8.708-85.238,25.182c-24.71,16.04-44.357,38.591-56.819,65.216c-1.257,2.686-1.257,5.792,0,8.478
		c12.461,26.625,32.109,49.177,56.819,65.216c25.379,16.474,54.854,25.182,85.238,25.182s59.859-8.708,85.238-25.182
		c24.71-16.04,44.358-38.591,56.818-65.216C286.315,144.553,286.315,141.447,285.057,138.761z M143,217.637
		c-51.292,0-98.614-29.141-121.868-74.637C44.386,97.504,91.708,68.363,143,68.363c51.293,0,98.614,29.141,121.868,74.637
		C241.614,188.496,194.293,217.637,143,217.637z"/>
	<path d="M143,72.559c-38.841,0-70.441,31.6-70.441,70.441s31.6,70.441,70.441,70.441c38.842,0,70.441-31.6,70.441-70.441
		S181.842,72.559,143,72.559z M143,193.441c-27.813,0-50.441-22.628-50.441-50.441S115.187,92.559,143,92.559
		s50.441,22.628,50.441,50.441S170.814,193.441,143,193.441z"/>
	<path d="M143,111.202c-17.533,0-31.798,14.265-31.798,31.798s14.265,31.798,31.798,31.798s31.798-14.265,31.798-31.798
		S160.533,111.202,143,111.202z M143,154.798c-6.505,0-11.798-5.292-11.798-11.798s5.292-11.798,11.798-11.798
		c6.505,0,11.798,5.292,11.798,11.798S149.505,154.798,143,154.798z"/>
</g>
<g>
</g>
<g>
</g>
<g>
</g>
<g>
</g>
<g>
</g>
<g>
</g>
<g>
</g>
<g>
</g>
<g>
</g>
<g>
</g>
<g>
</g>
<g>
</g>
<g>
</g>
<g>
</g>
<g>
</g>
</svg>
